PathFileType	4	(X/Y/Z)	C:/Users/beibeiliu/ov580/test_trc/User3\sequence.31_training_dense_right.trc
DataRate	CameraRate	NumFrames	NumMarkers	Units	OrigDataRate	OrigDataStartFrame	OrigNumFrames
120	120	22	19	mm	120	68	268
Frame#	Time	ThumbCMC			ThumbMCP			ThumbIP			ThumbTip			IndexMCP			IndexPIP			IndexTip			MiddleMCP			MiddlePIP			MiddleTip			RingMCP			RingPIP			RingTip			PinkyMCP			PinkyPIP			PinkyTip			BackHand1			BackHand2			BackHand3	
		X0	Y0	Z0	X1	Y1	Z1	X2	Y2	Z2	X3	Y3	Z3	X4	Y4	Z4	X5	Y5	Z5	X6	Y6	Z6	X7	Y7	Z7	X8	Y8	Z8	X9	Y9	Z9	X10	Y10	Z10	X11	Y11	Z11	X12	Y12	Z12	X13	Y13	Z13	X14	Y14	Z14	X15	Y15	Z15	X16	Y16	Z16	X17	Y17	Z17	X18	Y18	Z18	
67	0.558333	189.193	-10.9539	0.674785	156.847	-6.34162	-12.1049	125.711	-18.3681	-23.5786	116.312	-38.7933	-11.0796	146.903	-33.5798	-56.7184	119.817	-24.9551	-66.7452	96.0634	-14.2518	-70.2958	144.021	-54.5182	-59.432	129.64	-48.434	-79.6614	107.969	-41.2527	-100.771	133.866	-61.1986	-39.9232	105.631	-50.1243	-39.6029	112.211	-28.6522	-18.0277	133.881	-72.0313	-13.7466	112.248	-59.899	-26.3578	113.662	-36.1893	-2.98788	173.167	-71.6092	-3.87357	195.709	-68.2203	22.1709	198	-48.5776	-9.4544	
68	0.566667	183.818	-5.60201	-1.82744	147.407	-8.50875	-14.9325	120.268	-28.226	-20.174	113.722	-51.9839	-8.15147	152.118	-35.5883	-64.7153	130.088	-28.4171	-82.6834	105.503	-19.6568	-94.2796	141.685	-57.6497	-61.7016	116.253	-53.5363	-79.6931	87.7546	-44.1389	-87.9647	121.956	-56.0832	-34.0004	104.101	-33.6228	-24.3482	129.395	-20.7742	-2.27287	127.502	-62.4536	-25.317	108.095	-45.4271	-22.8072	115.337	-33.789	6.9961	174.559	-70.7992	-7.58096	192.936	-63.6898	16.0155	197.376	-44.6595	-12.9668	
69	0.575	183.067	-9.52293	-2.68931	150.602	-4.3844	-17.2453	124.428	-25.8139	-21.3108	117.421	-51.2433	-8.32992	159.398	-34.5005	-70.1291	143.798	-35.7465	-90.1848	126.245	-27.9084	-112.065	131.981	-44.869	-56.862	107.335	-32.346	-65.9923	78.0259	-13.703	-67.5013	121.152	-54.2691	-37.5203	102.431	-34.6018	-24.5917	124.946	-20.741	-4.64064	125.978	-64.5081	-22.6109	104.019	-44.0235	-21.5546	116.978	-31.8364	4.65498	171.331	-71.3879	-9.6144	189.951	-70.2132	18.3502	196.526	-46.8558	-10.4664	
70	0.583333	180.428	-8.45138	-7.07532	143.908	-9.52896	-20.2894	121.846	-31.1259	-18.9694	114.371	-54.0059	-5.61492	160.128	-39.4066	-69.8029	148.246	-37.5327	-95.3183	133.63	-35.4012	-115.42	127.429	-43.1604	-53.5177	101.652	-24.2721	-58.7252	78.5837	-9.76766	-50.8445	122.377	-57.8386	-35.8111	100.748	-37.6158	-28.5436	125.422	-21.0749	-6.58409	122.661	-66.3254	-21.6405	103.711	-48.1125	-20.2738	116.022	-32.4877	2.16102	172.652	-68.372	-7.41287	189.299	-66.4851	17.9612	197.851	-43.9998	-14.0279	
71	0.591667	185.542	-8.40421	8.20581	153.731	-4.40554	-12.4522	125.777	-9.19674	-26.0276	107.929	-16.0552	-33.3322	165.419	-39.5266	-61.6548	153.043	-40.0342	-84.0741	140.687	-42.9684	-103.87	141.694	-51.1695	-48.5427	111.277	-29.7039	-55.7218	101.4	-3.40164	-33.6696	126.314	-52.1311	-30.9183	113.164	-29.5483	-19.915	137.057	-22.1563	3.5938	123.12	-62.8027	-11.8895	112.714	-40.3994	-4.93458	136.371	-29.8056	12.9261	178.223	-67.439	-0.847156	191.91	-68.8176	24.2073	203.853	-41.1105	0.0536085	
72	0.6	185.541	-7.64314	2.11356	155.57	2.61899	-13.899	125.883	-5.98815	-27.3368	108.479	-12.3421	-33.3236	165.073	-38.1895	-65.4766	154.94	-36.7049	-87.4055	143.614	-37.6943	-112.83	140.537	-44.2835	-52.4778	110.511	-27.3286	-55.0334	98.9032	-2.78794	-27.1351	129.802	-47.4948	-31.6471	113.665	-26.8179	-12.9635	141.67	-22.3596	6.63368	122.764	-59.0859	-12.1836	117.01	-34.305	-3.46138	146.951	-29.0018	7.86072	174.763	-72.7196	-7.34688	193.331	-68.4087	21.7411	203.446	-41.635	-4.2831	
73	0.608333	187.262	-6.46127	2.61595	151.961	-1.27885	-13.3404	121.69	-9.28598	-24.1284	103.507	-14.9759	-28.6181	163.42	-36.1934	-67.7633	154.893	-34.4656	-88.877	141.612	-33.8789	-116.031	130.551	-43.5928	-50.2795	107.768	-21.7346	-51.1467	100.124	6.42249	-27.5433	121.368	-47.4529	-31.9268	109.3	-26.1003	-16.8906	139.098	-16.4148	-1.77709	121.328	-57.5655	-13.1942	112.651	-31.8229	-5.13806	139.201	-27.2491	6.39739	172.731	-70.7942	-8.84782	188.06	-68.1617	17.1676	199.538	-41.6229	-9.90657	
74	0.616667	189.728	-11.4128	6.42749	158.395	1.46592	-11.8149	130.632	-7.64054	-23.0603	108.467	-6.81752	-34.4828	166.707	-35.7163	-67.445	155.953	-29.0425	-88.5789	143.308	-23.4028	-110.865	136.859	-42.1467	-51.0136	113.164	-21.5947	-55.4472	94.3767	7.66545	-36.5533	127.113	-45.9089	-36.0225	111.485	-26.5759	-21.1633	139.892	-17.3385	-0.0610978	125.678	-60.7287	-20.45	111.922	-35.6312	-16.7165	123.487	-31.3105	9.58995	174.87	-69.4131	-6.31826	191.806	-68.7091	22.2289	201.761	-47.9777	-7.7198	
75	0.625	195.533	-9.14136	9.0216	162.834	1.14498	-12.9282	133.38	-13.8323	-21.7687	113.155	-26.809	-25.4606	169.031	-31.6195	-62.1948	147.38	-16.5532	-82.9751	131.017	5.93248	-62.0545	138.589	-41.1087	-50.2187	111.236	-23.2888	-54.7894	94.426	3.70608	-35.6825	132.412	-48.1714	-42.7872	109.664	-32.8599	-37.4104	121.622	-16.2615	-11.4612	129.396	-55.3376	-22.9409	112.346	-34.0272	-19.4741	120.93	-27.6262	8.32161	174.93	-70.1682	-2.12738	190.821	-71.9068	18.35	203.43	-43.2103	-4.66039	
76	0.633333	196.254	-12.4153	9.42382	168.353	-0.968059	-8.44654	140.578	-6.907	-16.5378	123.161	-28.1371	-11.5681	160.54	-27.7347	-53.2479	135.242	-17.3549	-67.95	114.491	-0.784934	-73.6647	141.871	-40.92	-48.5959	114.629	-20.7535	-58.0474	94.3804	-0.495726	-52.9639	131.595	-48.2632	-28.6789	112.061	-24.0256	-21.6612	138.715	-12.2702	-0.0983787	132.516	-60.2429	-18.4438	111.665	-41.8193	-20.1252	121.269	-25.3367	7.95044	174.055	-69.1856	0.0570177	195.969	-69.4136	23.4644	204.233	-47.2369	-2.70054	
77	0.641667	198.102	-11.4065	6.63801	169.545	0.178809	-5.41419	139.862	-3.7881	-17.9771	118.176	-16.0794	-16.8299	151.228	-23.1459	-53.4509	124.381	-5.73343	-59.9087	111.131	13.6211	-47.8574	138.4	-45.0324	-52.3269	116.312	-35.4428	-65.5016	88.4548	-15.651	-69.2444	124.242	-37.8443	-28.6418	110.579	-17.379	-12.5401	138.528	-12.4613	9.42064	127.629	-57.286	-16.9234	110.33	-35.2364	-17.5107	118.188	-23.7473	9.61611	174.658	-66.3259	-3.78349	191.054	-72.8716	16.5517	201.379	-48.6165	-6.45586	
78	0.65	194.038	-5.60239	6.78021	164.718	1.12583	-5.56399	136.948	-7.42675	-17.7668	117.979	-9.54173	-22.644	151.76	-19.1392	-48.3804	124.372	-1.26024	-50.7437	109.035	17.2743	-25.3143	147.197	-45.9647	-52.5657	125.213	-36.725	-74.9022	97.1758	-28.9385	-88.2375	137.904	-54.5812	-36.2787	112.653	-39.4217	-39.3414	115.609	-23.7065	-8.982	135.326	-61.9902	-18.9743	113.592	-50.1406	-20.8062	119.435	-32.9519	5.5303	176.255	-67.8333	-4.41035	198.145	-69.6284	19.0262	206.244	-39.1442	-6.39491	
79	0.658333	192.578	-6.35125	4.58152	163.842	0.12905	-9.23433	135.027	-3.31065	-21.8779	118.579	-7.74377	-28.626	144.702	-18.0864	-52.1601	119.719	0.449289	-47.8986	111.106	15.6021	-26.5073	148.912	-42.7546	-58.3064	124.88	-36.8093	-79.3325	104.773	-26.7906	-95.1967	133.274	-51.4613	-39.3475	107.851	-35.3649	-34.8762	120.558	-19.6382	-7.02423	136.315	-62.3772	-21.4636	112.747	-49.067	-26.6463	114.316	-31.6019	1.11644	177.826	-65.8445	-3.59654	194.973	-67.3988	15.7257	199.92	-43.1528	-5.82707	
80	0.666667	193.758	-6.04469	7.24795	163.542	0.899892	-10.4015	135.062	-7.43139	-23.9916	117.282	-6.32543	-32.4062	145.654	-22.45	-50.3229	121.368	-3.71797	-49.6557	111.699	18.2098	-31.404	151.096	-45.8376	-54.9564	131.584	-41.8635	-76.626	109.264	-31.0784	-97.0733	130.437	-53.0769	-37.3261	109.167	-34.3184	-33.9041	119.603	-22.9908	-3.4384	134.434	-66.9126	-17.8771	113.373	-50.6957	-26.112	115.926	-32.5602	-1.26842	176.299	-67.6879	0.569752	195.019	-67.5852	22.969	204.098	-41.5508	-6.79463	
81	0.675	189.505	-3.9331	7.44568	161.245	2.94373	-10.6051	135.757	-12.3556	-26.5646	117.823	-13.8931	-35.4431	157.643	-28.0303	-53.6489	129.112	-14.2381	-64.0497	108.641	-1.59701	-57.656	153.053	-45.4796	-56.8347	137.895	-39.5443	-73.5799	114.869	-37.1279	-98.6284	134.456	-52.9509	-32.8493	114.257	-31.0909	-24.275	131.054	-24.9173	2.98126	136.181	-65.8178	-21.219	114.08	-48.9373	-20.3802	120.839	-35.7795	7.19732	182.839	-66.6126	-4.1665	197.895	-61.9177	25.4949	205.253	-38.6369	-0.667612	
82	0.683333	193.94	-6.92245	11.9489	165.651	1.74766	-6.60177	139.621	-8.24431	-21.0097	122.007	-26.0211	-19.3411	163.073	-25.8756	-55.9816	142.622	-18.9833	-74.7534	119.766	-7.42736	-82.5614	151.169	-42.8299	-53.5242	129.267	-32.6312	-74.1392	104.406	-19.8872	-87.029	130.081	-49.1132	-31.794	111.868	-30.4054	-21.3316	132.972	-19.4609	4.29905	138.054	-61.3458	-21.9644	113.893	-46.4156	-20.2665	120.084	-31.8335	3.21293	182.161	-64.3902	-4.77304	197.263	-70.6754	20.4124	208.353	-40.1195	-1.51965	
83	0.691667	193.682	-9.07374	8.75634	161.913	0.697539	-12.3868	133.808	-7.40382	-22.6793	120.527	-29.9817	-16.6166	166.035	-29.9262	-59.0888	152.018	-26.669	-82.5906	132.667	-19.2356	-104.163	149.913	-38.6252	-59.1636	124.851	-27.4528	-73.4804	96.044	-8.46085	-74.1065	126.602	-45.2625	-27.6739	115.45	-20.8032	-10.914	142.83	-16.8958	6.0632	135.563	-57.9207	-23.5248	112.511	-41.9751	-23.4288	120.257	-32.6944	8.21952	178.263	-67.179	-8.20317	194.747	-68.4297	17.9985	203.817	-40.0671	-5.79394	
84	0.7	192.14	-8.65129	5.80195	161.799	-0.89925	-14.2334	133.446	-17.9895	-27.9046	116.415	-19.5061	-36.7124	166.274	-34.2093	-65.6898	152.505	-29.8184	-82.7104	139.833	-26.1536	-103.08	142.943	-42.0059	-50.7579	116.419	-28.1702	-56.9845	88.9153	-4.98357	-58.8916	132.637	-50.5959	-31.6241	113.61	-27.9957	-25.2429	137.102	-15.6195	-2.46148	134.005	-60.6491	-16.4986	110.968	-41.7597	-18.5658	122.902	-24.8187	2.5634	175.864	-67.5563	-2.08731	193.089	-67.8216	29.314	203.308	-46.1685	-2.23474	
85	0.708333	194.023	-5.87915	4.60074	162.517	1.4898	-17.1876	134.678	-11.9711	-25.8218	115.075	-16.484	-33.4118	169.029	-32.1905	-66.919	155.518	-30.6973	-88.3453	140.982	-28.0714	-107.731	141.88	-40.3232	-52.7954	112.992	-17.8324	-58.0434	92.6394	0.753282	-41.4386	133.255	-48.5233	-35.9435	111.028	-28.9971	-23.8165	135.475	-19.2744	0.864574	132.557	-60.9002	-24.6092	113.914	-41.8636	-20.807	124.047	-32.73	8.24625	179.957	-67.1934	-9.21619	195.753	-68.1709	21.6642	205.292	-43.2854	-7.87384	
86	0.716667	195.237	-7.35212	-1.47544	160.271	-2.77199	-19.7493	130.824	-19.256	-24.3566	115.509	-25.0202	-23.5511	164.199	-36.233	-68.5959	153.427	-32.0718	-93.266	141.086	-29.1152	-114.9	131.973	-40.1147	-50.3058	107.318	-19.9628	-51.3869	92.8238	8.57305	-31.5904	124.889	-47.0844	-32.6392	109.739	-25.0798	-21.354	136.529	-13.5405	-3.16734	129.945	-63.0047	-19.8505	108.338	-45.7401	-24.6596	115.947	-29.2718	-2.57863	174.596	-69.2691	-9.78961	193.481	-67.0626	18.8395	201.744	-45.4507	-11.6067	
87	0.725	194.319	-7.28644	0.287636	160.769	-1.41902	-18.8169	134.853	-19.2395	-23.8722	114.213	-22.9946	-28.0998	167.656	-33.5416	-64.7983	156.369	-30.9448	-88.1257	137.386	-25.7796	-110.25	135.201	-41.6332	-51.0455	108.161	-19.0874	-50.7373	97.4956	10.0305	-32.4595	126.553	-43.1352	-32.1991	113.862	-19.9733	-17.0146	142.686	-13.1168	4.42436	128.4	-62.9579	-21.0875	110.492	-42.428	-23.9889	120.9	-26.2065	-0.802922	176.734	-67.8559	-4.95158	192.783	-70.4362	20.7647	201.394	-45.4395	-6.77489	
88	0.733333	191.207	-9.16687	2.33044	162.147	0.867117	-16.3278	134.077	-10.0414	-31.1229	114.321	-14.0171	-39.3166	171.262	-29.8511	-65.087	156.341	-26.214	-86.0321	138.652	-20.3976	-107.273	140.578	-43.0738	-47.7038	111.372	-22.272	-50.0756	94.0762	1.44485	-38.283	128.57	-47.8699	-28.1092	118.491	-23.1083	-10.8911	148.711	-19.2957	3.68956	132.944	-67.1344	-20.6892	113.61	-45.8457	-22.9784	125.289	-31.351	5.09081	179.043	-71.136	-6.44072	193.169	-68.7534	20.3508	203.342	-43.9644	-5.52628	
